<svg width="19" height="20" viewBox="0 0 19 20" fill="none" xmlns="http://www.w3.org/2000/svg">
<path d="M12.9135 19V15.6871C12.9454 15.2789 12.8906 14.8685 12.7526 14.4833C12.6147 14.0981 12.3969 13.7468 12.1136 13.4528C14.7856 13.1532 17.5938 12.1345 17.5938 7.46044C17.5935 6.26524 17.1365 5.11588 16.3173 4.25025C16.7052 3.20459 16.6778 2.04878 16.2407 1.02294C16.2407 1.02294 15.2366 0.723319 12.9135 2.28989C10.9631 1.75813 8.90713 1.75813 6.95673 2.28989C4.63361 0.723319 3.62947 1.02294 3.62947 1.02294C3.1924 2.04878 3.16497 3.20459 3.55288 4.25025C2.72756 5.12231 2.27008 6.28205 2.27644 7.48612C2.27644 12.1259 5.08462 13.1446 7.75663 13.4785C7.47667 13.7695 7.26075 14.1166 7.12293 14.4971C6.98511 14.8776 6.92849 15.2831 6.95673 15.6871V19M6.95673 16.4318C2.70192 17.7159 2.70192 14.2917 1 13.8637L6.95673 16.4318Z" stroke="white" stroke-width="1.5" stroke-linecap="round" stroke-linejoin="round"/>
</svg>
