<svg width="21" height="20" viewBox="0 0 21 20" fill="none" xmlns="http://www.w3.org/2000/svg">
<path d="M14.2623 6.6842C15.7699 6.6842 17.2157 7.28307 18.2817 8.34907C19.3477 9.41507 19.9465 10.8609 19.9465 12.3684V19H16.1571V12.3684C16.1571 11.8659 15.9574 11.384 15.6021 11.0286C15.2468 10.6733 14.7649 10.4737 14.2623 10.4737C13.7598 10.4737 13.2779 10.6733 12.9226 11.0286C12.5672 11.384 12.3676 11.8659 12.3676 12.3684V19H8.57812V12.3684C8.57812 10.8609 9.177 9.41507 10.243 8.34907C11.309 7.28307 12.7548 6.6842 14.2623 6.6842Z" fill="black" stroke="white" stroke-width="1.5" stroke-linecap="round" stroke-linejoin="round"/>
<path d="M4.78947 7.63159H1V19H4.78947V7.63159Z" fill="black" stroke="white" stroke-width="1.5" stroke-linecap="round" stroke-linejoin="round"/>
<path d="M2.89474 4.78947C3.94117 4.78947 4.78947 3.94117 4.78947 2.89474C4.78947 1.8483 3.94117 1 2.89474 1C1.8483 1 1 1.8483 1 2.89474C1 3.94117 1.8483 4.78947 2.89474 4.78947Z" fill="black" stroke="white" stroke-width="1.5" stroke-linecap="round" stroke-linejoin="round"/>
</svg>
